<?xml version="1.0" standalone="no"?><svg xmlns="http://www.w3.org/2000/svg" viewBox="0 0 1440 320"><path fill="#a2d9ff" fill-opacity="1" d="M0,32L16,69.3C32,107,64,181,96,213.3C128,245,160,235,192,208C224,181,256,139,288,144C320,149,352,203,384,218.7C416,235,448,213,480,213.3C512,213,544,235,576,229.3C608,224,640,192,672,165.3C704,139,736,117,768,128C800,139,832,181,864,176C896,171,928,117,960,112C992,107,1024,149,1056,186.7C1088,224,1120,256,1152,229.3C1184,203,1216,117,1248,117.3C1280,117,1312,203,1344,240C1376,277,1408,267,1424,261.3L1440,256L1440,320L1424,320C1408,320,1376,320,1344,320C1312,320,1280,320,1248,320C1216,320,1184,320,1152,320C1120,320,1088,320,1056,320C1024,320,992,320,960,320C928,320,896,320,864,320C832,320,800,320,768,320C736,320,704,320,672,320C640,320,608,320,576,320C544,320,512,320,480,320C448,320,416,320,384,320C352,320,320,320,288,320C256,320,224,320,192,320C160,320,128,320,96,320C64,320,32,320,16,320L0,320Z"></path></svg>